<svg xmlns="http://www.w3.org/2000/svg" viewBox="0 0 900 600">
  <!-- Background -->
  <rect width="900" height="600" fill="#f8f9fa"/>
  
  <!-- Title -->
  <text x="450" y="50" font-family="Arial" font-size="24" font-weight="bold" text-anchor="middle">Mayo Clinic's Backwards RAG Approach to Reducing Hallucinations</text>
  
  <!-- Traditional RAG Process (Top) -->
  <rect x="100" y="100" width="700" height="160" rx="10" fill="#e6f7ff" stroke="#1890ff" stroke-width="2"/>
  <text x="450" y="125" font-family="Arial" font-size="18" font-weight="bold" text-anchor="middle">Traditional RAG Process</text>
  
  <!-- RAG Steps -->
  <rect x="130" y="140" width="140" height="80" rx="5" fill="#ffffff" stroke="#1890ff" stroke-width="1"/>
  <text x="200" y="170" font-family="Arial" font-size="14" font-weight="bold" text-anchor="middle">Query</text>
  <text x="200" y="190" font-family="Arial" font-size="12" text-anchor="middle">User asks for patient info</text>
  
  <rect x="330" y="140" width="140" height="80" rx="5" fill="#ffffff" stroke="#1890ff" stroke-width="1"/>
  <text x="400" y="170" font-family="Arial" font-size="14" font-weight="bold" text-anchor="middle">Retrieval</text>
  <text x="400" y="190" font-family="Arial" font-size="12" text-anchor="middle">LLM searches relevant data</text>
  
  <rect x="530" y="140" width="140" height="80" rx="5" fill="#ffffff" stroke="#1890ff" stroke-width="1"/>
  <text x="600" y="170" font-family="Arial" font-size="14" font-weight="bold" text-anchor="middle">Generation</text>
  <text x="600" y="190" font-family="Arial" font-size="12" text-anchor="middle">LLM creates response</text>
  
  <!-- Arrows -->
  <line x1="270" y1="180" x2="330" y2="180" stroke="#1890ff" stroke-width="2"/>
  <polygon points="328,175 338,180 328,185" fill="#1890ff"/>
  
  <line x1="470" y1="180" x2="530" y2="180" stroke="#1890ff" stroke-width="2"/>
  <polygon points="528,175 538,180 528,185" fill="#1890ff"/>
  
  <!-- Problem indicator -->
  <text x="700" y="180" font-family="Arial" font-size="14" fill="#ff4d4f" text-anchor="start">⚠️ Potential hallucinations</text>
  
  <!-- Mayo's Backwards RAG Process (Bottom) -->
  <rect x="100" y="300" width="700" height="250" rx="10" fill="#f6ffed" stroke="#52c41a" stroke-width="2"/>
  <text x="450" y="325" font-family="Arial" font-size="18" font-weight="bold" text-anchor="middle">Mayo Clinic's Backwards RAG + CURE Approach</text>
  
  <!-- Backwards RAG Steps -->
  <rect x="120" y="350" width="130" height="70" rx="5" fill="#ffffff" stroke="#52c41a" stroke-width="1"/>
  <text x="185" y="375" font-family="Arial" font-size="14" font-weight="bold" text-anchor="middle">LLM Generation</text>
  <text x="185" y="395" font-family="Arial" font-size="12" text-anchor="middle">Creates summary</text>
  
  <rect x="300" y="350" width="130" height="70" rx="5" fill="#ffffff" stroke="#52c41a" stroke-width="1"/>
  <text x="365" y="375" font-family="Arial" font-size="14" font-weight="bold" text-anchor="middle">Fact Extraction</text>
  <text x="365" y="395" font-family="Arial" font-size="12" text-anchor="middle">Splits into facts</text>
  
  <rect x="480" y="350" width="130" height="70" rx="5" fill="#ffffff" stroke="#52c41a" stroke-width="1"/>
  <text x="545" y="375" font-family="Arial" font-size="14" font-weight="bold" text-anchor="middle">Source Matching</text>
  <text x="545" y="395" font-family="Arial" font-size="12" text-anchor="middle">CURE algorithm</text>
  
  <rect x="660" y="350" width="130" height="70" rx="5" fill="#ffffff" stroke="#52c41a" stroke-width="1"/>
  <text x="725" y="375" font-family="Arial" font-size="14" font-weight="bold" text-anchor="middle">Verification</text>
  <text x="725" y="395" font-family="Arial" font-size="12" text-anchor="middle">Second LLM scores</text>
  
  <!-- Arrows -->
  <line x1="250" y1="385" x2="300" y2="385" stroke="#52c41a" stroke-width="2"/>
  <polygon points="298,380 308,385 298,390" fill="#52c41a"/>
  
  <line x1="430" y1="385" x2="480" y2="385" stroke="#52c41a" stroke-width="2"/>
  <polygon points="478,380 488,385 478,390" fill="#52c41a"/>
  
  <line x1="610" y1="385" x2="660" y2="385" stroke="#52c41a" stroke-width="2"/>
  <polygon points="658,380 668,385 658,390" fill="#52c41a"/>
  
  <!-- Data Sources -->
  <rect x="120" y="460" width="660" height="60" rx="5" fill="#f9f0ff" stroke="#722ed1" stroke-width="1"/>
  <text x="450" y="490" font-family="Arial" font-size="14" font-weight="bold" text-anchor="middle">Patient Data Sources (Vector Database)</text>
  <text x="450" y="510" font-family="Arial" font-size="12" text-anchor="middle">EHR Data, Lab Reports, Imaging Reports, Outside Medical Records</text>
  
  <!-- Bidirectional connections to data sources -->
  <line x1="185" y1="420" x2="185" y2="460" stroke="#722ed1" stroke-width="2" stroke-dasharray="5,5"/>
  <line x1="365" y1="420" x2="365" y2="460" stroke="#722ed1" stroke-width="2" stroke-dasharray="5,5"/>
  <line x1="545" y1="420" x2="545" y2="460" stroke="#722ed1" stroke-width="2"/>
  <line x1="725" y1="420" x2="725" y2="460" stroke="#722ed1" stroke-width="2"/>
  
  <!-- Result indicator -->
  <rect x="250" y="560" width="400" height="30" rx="15" fill="#f5f5f5" stroke="#000000" stroke-width="1"/>
  <text x="450" y="580" font-family="Arial" font-size="14" font-weight="bold" text-anchor="middle" fill="#52c41a">✓ Eliminates nearly all data-retrieval hallucinations</text>
</svg>
